<svg xmlns="http://www.w3.org/2000/svg" fill-rule="evenodd" viewBox="0 0 100 100">
    <path d="m71.977 11.926-.002-.001c-5.213-2.49-10.819-.501-15.324 1.096-2.304.817-4.48 1.589-6.093 1.589s-3.789-.771-6.092-1.589c-4.504-1.598-10.11-3.585-15.327-1.096-7.744 3.707-13.397 12.378-9.219 21.779 1.294 2.919 2.501 5.15 3.472 6.942 1.876 3.467 3.009 5.56 3.009 9.145 0 5.575 1.669 23.824 9.084 34.196 3.744 5.243 7.675 7.059 7.841 7.134a1.502 1.502 0 0 0 2.008-1.931c-.054-.132-5.32-13.321-2.18-21.899 1.75-4.755 5.138-7.43 7.24-7.208.109.013.221.013.33 0 2.12-.224 5.49 2.454 7.236 7.206 3.144 8.58-2.129 21.768-2.183 21.9a1.501 1.501 0 0 0 2.006 1.932c.166-.075 4.104-1.891 7.849-7.134 7.41-10.374 9.078-28.622 9.078-34.197 0-3.584 1.132-5.676 3.008-9.143.97-1.793 2.177-4.024 3.47-6.941 4.183-9.396-1.467-18.069-9.211-21.78zm6.468 20.562c-1.247 2.812-2.374 4.895-3.368 6.732-1.956 3.615-3.369 6.227-3.369 10.571 0 6.697-2.083 23.442-8.519 32.453a23.687 23.687 0 0 1-3.122 3.575c1.435-4.995 3.046-13.179.708-19.563-1.971-5.365-6.101-9.186-9.806-9.186-.138 0-.275.005-.411.016-3.807-.305-8.174 3.605-10.222 9.171-2.336 6.381-.728 14.562.705 19.557a23.682 23.682 0 0 1-3.116-3.571c-6.441-9.01-8.525-25.755-8.525-32.452 0-4.344-1.414-6.957-3.371-10.572-.994-1.837-2.121-3.919-3.368-6.732-2.495-5.613-1.126-13.596 7.771-17.854 4.09-1.955 8.84-.271 13.031 1.216 2.554.906 4.966 1.761 7.095 1.761s4.542-.855 7.096-1.761c4.189-1.486 8.936-3.169 13.029-1.217 8.897 4.265 10.261 12.244 7.762 17.856z"/>
    <path d="M35.869 21.015a1.5 1.5 0 0 0-.009-3c-.151 0-3.723.031-6.193 2.735-1.744 1.91-2.474 4.591-2.167 7.967.654 7.34 7.12 12.863 7.395 13.095a1.497 1.497 0 0 0 2.113-.181 1.5 1.5 0 0 0-.181-2.114c-.058-.049-5.793-4.944-6.339-11.068-.226-2.49.237-4.392 1.375-5.653 1.555-1.725 3.964-1.781 4.006-1.781z"/>
</svg>
